HIERARCHY
ROOT hip
{
  OFFSET 0 0 0
  CHANNELS 6 Xposition Yposition Zposition Zrotation Yrotation Xrotation
  JOINT abdomen
  {
    OFFSET 0 20.6881 -0.73152
    CHANNELS 3 Zrotation Xrotation Yrotation
    JOINT chest
    {
      OFFSET 0 11.7043 -0.48768
      CHANNELS 3 Zrotation Xrotation Yrotation
      JOINT neck
      {
        OFFSET 0 22.1894 -2.19456
        CHANNELS 3 Zrotation Xrotation Yrotation
        JOINT head
        {
          OFFSET -0.24384 7.07133 1.2192
          CHANNELS 3 Zrotation Xrotation Yrotation
          JOINT leftEye
          {
            OFFSET 4.14528 8.04674 8.04672
            CHANNELS 3 Zrotation Xrotation Yrotation
            End Site
            {
              OFFSET 1 0 0
            }
          }
          JOINT rightEye
          {
            OFFSET -3.6576 8.04674 8.04672
            CHANNELS 3 Zrotation Xrotation Yrotation
            End Site
            {
              OFFSET 1 0 0
            }
          }
        }
      }
      JOINT rCollar
      {
        OFFSET -2.68224 19.2634 -4.8768
        CHANNELS 3 Zrotation Xrotation Yrotation
        JOINT rShldr
        {
          OFFSET -8.77824 -1.95073 1.46304
          CHANNELS 3 Zrotation Xrotation Yrotation
          JOINT rForeArm
          {
            OFFSET -28.1742 -1.7115 0.48768
            CHANNELS 3 Zrotation Xrotation Yrotation
            JOINT rHand
            {
              OFFSET -22.5879 0.773209 7.07136
              CHANNELS 3 Zrotation Xrotation Yrotation
              JOINT rThumb1
              {
                OFFSET -1.2192 -0.487915 3.41376
                CHANNELS 3 Zrotation Xrotation Yrotation
                JOINT rThumb2
                {
                  OFFSET -3.37035 -0.52449 3.41376
                  CHANNELS 3 Zrotation Xrotation Yrotation
                  End Site
                  {
                    OFFSET -1.78271 -1.18214 1.43049
                  }
                }
              }
              JOINT rIndex1
              {
                OFFSET -7.75947 0.938293 5.60832
                CHANNELS 3 Zrotation Xrotation Yrotation
                JOINT rIndex2
                {
                  OFFSET -2.54057 -0.884171 1.56538
                  CHANNELS 3 Zrotation Xrotation Yrotation
                  End Site
                  {
                    OFFSET -1.62519 -0.234802 1.16502
                  }
                }
              }
              JOINT rMid1
              {
                OFFSET -8.24714 1.18213 3.41376
                CHANNELS 3 Zrotation Xrotation Yrotation
                JOINT rMid2
                {
                  OFFSET -3.10165 -0.590103 1.0647
                  CHANNELS 3 Zrotation Xrotation Yrotation
                  End Site
                  {
                    OFFSET -2.48547 -0.328903 0.83742
                  }
                }
              }
              JOINT rRing1
              {
                OFFSET -8.82822 0.546677 1.51678
                CHANNELS 3 Zrotation Xrotation Yrotation
                JOINT rRing2
                {
                  OFFSET -2.60934 -0.819778 -0.0198488
                  CHANNELS 3 Zrotation Xrotation Yrotation
                  End Site
                  {
                    OFFSET -2.33842 -0.294052 0.168128
                  }
                }
              }
              JOINT rPinky1
              {
                OFFSET -8.27202 -0.0477905 -0.4584
                CHANNELS 3 Zrotation Xrotation Yrotation
                JOINT rPinky2
                {
                  OFFSET -1.82734 -0.647385 -0.700984
                  CHANNELS 3 Zrotation Xrotation Yrotation
                  End Site
                  {
                    OFFSET -1.69225 -0.51767 -0.607171
                  }
                }
              }
            }
          }
        }
      }
      JOINT lCollar
      {
        OFFSET 2.68224 19.2634 -4.8768
        CHANNELS 3 Zrotation Xrotation Yrotation
        JOINT lShldr
        {
          OFFSET 8.77824 -1.95073 1.46304
          CHANNELS 3 Zrotation Xrotation Yrotation
          JOINT lForeArm
          {
            OFFSET 28.1742 -1.7115 0.48768
            CHANNELS 3 Zrotation Xrotation Yrotation
            JOINT lHand
            {
              OFFSET 22.5879 0.773209 7.07136
              CHANNELS 3 Zrotation Xrotation Yrotation
              JOINT lThumb1
              {
                OFFSET 1.2192 -0.487915 3.41376
                CHANNELS 3 Zrotation Xrotation Yrotation
                JOINT lThumb2
                {
                  OFFSET 3.37035 -0.52449 3.41376
                  CHANNELS 3 Zrotation Xrotation Yrotation
                  End Site
                  {
                    OFFSET 1.78271 -1.18214 1.43049
                  }
                }
              }
              JOINT lIndex1
              {
                OFFSET 7.75947 0.938293 5.60832
                CHANNELS 3 Zrotation Xrotation Yrotation
                JOINT lIndex2
                {
                  OFFSET 2.54057 -0.884171 1.56538
                  CHANNELS 3 Zrotation Xrotation Yrotation
                  End Site
                  {
                    OFFSET 1.62519 -0.234802 1.16502
                  }
                }
              }
              JOINT lMid1
              {
                OFFSET 8.24714 1.18213 3.41376
                CHANNELS 3 Zrotation Xrotation Yrotation
                JOINT lMid2
                {
                  OFFSET 3.10165 -0.590103 1.0647
                  CHANNELS 3 Zrotation Xrotation Yrotation
                  End Site
                  {
                    OFFSET 2.48547 -0.328903 0.83742
                  }
                }
              }
              JOINT lRing1
              {
                OFFSET 8.82822 0.546677 1.51678
                CHANNELS 3 Zrotation Xrotation Yrotation
                JOINT lRing2
                {
                  OFFSET 2.60934 -0.819778 -0.0198488
                  CHANNELS 3 Zrotation Xrotation Yrotation
                  End Site
                  {
                    OFFSET 2.33842 -0.294052 0.168128
                  }
                }
              }
              JOINT lPinky1
              {
                OFFSET 8.27202 -0.0477905 -0.4584
                CHANNELS 3 Zrotation Xrotation Yrotation
                JOINT lPinky2
                {
                  OFFSET 1.82734 -0.647385 -0.700984
                  CHANNELS 3 Zrotation Xrotation Yrotation
                  End Site
                  {
                    OFFSET 1.69225 -0.51767 -0.607171
                  }
                }
              }
            }
          }
        }
      }
    }
  }
  JOINT rButtock
  {
    OFFSET -8.77824 4.35084 1.2192
    CHANNELS 3 Zrotation Xrotation Yrotation
    JOINT rThigh
    {
      OFFSET 0 -1.70687 -2.19456
      CHANNELS 3 Zrotation Xrotation Yrotation
      JOINT rShin
      {
        OFFSET 0 -36.8199 0.73152
        CHANNELS 3 Zrotation Xrotation Yrotation
        JOINT rFoot
        {
          OFFSET 0.73152 -45.1104 -5.12064
          CHANNELS 3 Zrotation Xrotation Yrotation
          End Site
          {
            OFFSET -1.1221 -3.69964 12.103
          }
        }
      }
    }
  }
  JOINT lButtock
  {
    OFFSET 8.77824 4.35084 1.2192
    CHANNELS 3 Zrotation Xrotation Yrotation
    JOINT lThigh
    {
      OFFSET 0 -1.70687 -2.19456
      CHANNELS 3 Zrotation Xrotation Yrotation
      JOINT lShin
      {
        OFFSET 0 -36.8199 0.73152
        CHANNELS 3 Zrotation Xrotation Yrotation
        JOINT lFoot
        {
          OFFSET -0.73152 -45.1104 -5.12064
          CHANNELS 3 Zrotation Xrotation Yrotation
          End Site
          {
            OFFSET 1.1221 -3.69964 12.103
          }
        }
      }
    }
  }
}
MOTION
Frames:	4
Frame Time:	0.03333
0.019284430891275406 38.89088439941406 0.15769459307193756 -15.504173934459686 -13.847232609987259 9.120470881462097 -9.007426500320435 20.496920943260193 2.293272279202938 4.740134552121162 -3.501589000225067 -6.344188749790192 -9.597241580486298 18.649278581142426 -10.075110644102097 4.007932394742966 -22.306895703077316 -13.812636137008667 4.459205344319344 5.624977201223373 0.3528442606329918 2.1383535861968994 2.7453358098864555 -2.5735560804605484 7.1650580316782 -3.08913666754961 0.1748790219426155 37.01921582221985 32.903435826301575 21.340534687042236 -17.69787758588791 -24.718945920467377 57.183188796043396 -4.767422676086426 -11.581209897994995 -7.278813198208809 0.28741344809532166 3.6056198179721832 1.9702716171741486 -0.04716698080301285 3.6920472979545593 -2.4214235320687294 -2.033831086009741 -4.727809131145477 1.469080075621605 -0.6043521501123905 1.2403412908315659 -2.0900892466306686 2.8184890374541283 -3.930806815624237 -4.081574454903603 -3.4164131060242653 0.5816685408353806 2.502673678100109 4.328089244663715 10.29569149017334 0.03946870565414429 4.554927349090576 -1.8016069382429123 2.30400413274765 5.469805374741554 5.7210854440927505 1.0073183476924896 3.9005380868911743 -3.793688602745533 4.664442948997021 2.400997169315815 0.4665082320570946 -5.176148414611816 -52.717788219451904 33.48924100399017 -23.007785081863403 15.092875957489014 -20.80519527196884 -54.73720192909241 2.9230526089668274 1.4480777084827423 1.7372989654541016 -0.08757177740335464 -4.034635461866856 -7.706144079566002 -9.574585631489754 4.521515406668186 -2.235846519470215 1.6462869197130203 0.24782605469226837 3.9234263822436333 -0.1284436136484146 7.23006471991539 -0.3348429501056671 2.7452191337943077 4.53506525605917 -4.375099316239357 -0.36392346024513245 -3.276789039373398 -3.318643234670162 -1.493236217647791 -4.732053726911545 2.1460414677858353 -16.800234764814377 -0.21078642457723618 1.7455358617007732 -4.9699147045612335 -2.170126363635063 4.047369919717312 -8.664157390594482 -1.286788433790207 -0.7368940114974976 1.8319537863135338 4.877051934599876 1.123538464307785 -21.53741016983986 -28.24810802936554 -33.035671412944794 -12.373808026313782 41.72537684440613 10.951521769165993 -1.1245878785848618 -7.059513106942177 -7.418999522924423 3.941691219806671 0.5574113130569458 0.19200526177883148 26.64822667837143 -29.05487358570099 13.777146488428116 14.458257257938385 55.62376856803894 -11.768181324005127 4.0345606952905655 -7.419134974479675 13.54302316904068
0.0426737517118454 64.3045425415039 0.3843022733926773 -21.688165068626404 -14.16979506611824 28.526902198791504 -19.04266744852066 35.459495186805725 -4.3754154816269875 0.033201053738594055 -3.231632709503174 -16.73814430832863 -15.139720737934113 20.57104378938675 -15.917691439390182 13.000848144292831 -22.926342487335205 -26.648958921432495 5.4183512181043625 9.116149842739105 0.8151685819029808 -2.206733822822571 -2.185246981680393 -2.2652361541986465 4.565702453255653 1.6821564361453056 -7.161660343408585 42.678741216659546 37.614701092243195 28.710840046405792 -23.266481459140778 -33.07193219661713 71.73711776733398 -9.734822809696198 -23.41460108757019 -16.96334794163704 -0.6330670416355133 0.011241137981414795 0.9171196818351746 4.454765282571316 12.688071727752686 -8.09943974018097 -1.8556304834783077 -8.619713187217712 -1.8604854494333267 -7.0875247567892075 -8.75630535185337 -2.854500040411949 13.781283795833588 -10.66159039735794 -10.639692172408104 1.0635465011000633 -2.587483450770378 12.17613860964775 5.410022623836994 10.422307848930359 -5.048182904720306 2.726838458329439 7.753987982869148 -6.7402879893779755 0.35087392665445805 14.065139293670654 6.913923472166061 6.210476607084274 -8.669954985380173 5.95189556479454 -1.045924387872219 -5.437371768057346 -12.98285722732544 -61.154783964157104 37.74024188518524 -26.937350034713745 14.780680239200592 -15.696450769901276 -55.69552302360535 13.94577294588089 -6.282139867544174 11.82823732495308 -0.9711182489991188 -13.915201127529144 -12.339608520269394 -11.921013593673706 18.732836097478867 0.07800936698913574 -4.706578776240349 -4.112067148089409 8.89073833823204 -2.584393545985222 -2.59870782494545 4.779265969991684 4.359823130071163 3.2188301905989647 -5.514946952462196 0.8350507915019989 -10.247464030981064 -1.4558383449912071 -11.04230247437954 2.8995631635189056 1.567918136715889 -13.07502195239067 4.323190189898014 -5.25552436709404 2.599423974752426 -7.156784757971764 8.851323947310448 -19.832599461078644 -6.542550176382065 1.9825977087020874 -3.068206049501896 5.3101857751607895 3.3923010528087616 -24.64456021785736 -32.10724622011185 -26.46647483110428 -15.675650238990784 55.468822717666626 22.356866598129272 -4.905137345194817 -2.1918348222970963 -15.47404333949089 6.891209185123444 -2.1537789702415466 3.1307514756917953 30.806350708007812 -22.62234628200531 9.337897449731827 20.38804739713669 50.47800421714783 -12.533246576786041 18.15723806619644 -11.599341630935669 8.850175961852074
0.027322503738105297 61.78920364379883 0.5084017664194107 -23.23822170495987 -12.249059826135635 14.90919828414917 -12.833235561847687 32.280691266059875 -8.463013172149658 -1.6146086901426315 -5.083196461200714 -15.23521676659584 -16.73792839050293 23.135396540164948 -15.166393965482712 13.716831654310226 -28.242464661598206 -18.189464807510376 9.82099212706089 7.198855876922607 -2.984952963888645 -4.474037289619446 5.605395399034023 -4.062884822487831 5.998004749417305 2.8622613474726677 -6.487964540719986 51.63325846195221 42.8194659948349 22.43711292743683 -19.386743903160095 -33.35655748844147 72.50945448875427 -9.978919923305511 -21.665394455194473 -20.39033129811287 -3.5154975950717926 -3.441884368658066 4.3136438727378845 5.409698747098446 14.431926012039185 -9.429675936698914 0.2222231961786747 -9.880002737045288 1.8654032796621323 -9.184320196509361 -6.735287681221962 -3.3959468454122543 8.26483815908432 -7.499885559082031 -12.098141312599182 -2.3434651270508766 -3.6688991636037827 6.9676608592271805 8.015504032373428 9.283264875411987 -1.4278927445411682 0.9259925968945026 5.489280894398689 -6.531542390584946 2.1512798219919205 10.663994327187538 9.850717037916183 4.381812214851379 -10.325865000486374 7.537840157747269 3.143082596361637 -4.565986432135105 -13.180283904075623 -65.78810691833496 39.29367005825043 -29.370328187942505 13.744312226772308 -19.04139071702957 -58.746535778045654 15.426110923290253 -3.0767659842967987 12.60876014828682 -2.953597940504551 -13.106504380702972 -10.941336080431938 -15.154244899749756 18.495726138353348 -0.293310284614563 -4.39768485724926 -0.06523065268993378 6.331342309713364 -0.7985170930624008 -3.918209820985794 5.669426769018173 2.5910886749625206 2.218717597424984 -2.6212940365076065 0.12405082583427429 -6.176557391881943 -0.6543299183249474 -8.396410569548607 5.690637677907944 6.205296590924263 -16.33447453379631 2.5468624010682106 -6.1422573029994965 -2.228565663099289 -11.000964269042015 14.683250337839127 -16.85388833284378 -5.833352655172348 -0.9036040306091309 -0.116751529276371 3.6368199437856674 7.160694748163223 -20.98985865712166 -32.43823617696762 -24.636918604373932 -12.81678020954132 65.73535859584808 14.359281063079834 -1.2144338339567184 -4.052689746022224 -16.645707339048386 10.610252916812897 2.086825668811798 5.852431878447533 39.71984624862671 -30.51505208015442 26.37916624546051 16.20108425617218 62.64055073261261 -6.3966286182403564 20.90956538915634 -14.725343585014343 10.551190003752708
0.0008392101153731346 61.07384490966797 0.6184212267398834 -25.789329707622528 -18.556220680475235 6.959291696548462 -14.223639070987701 29.379892945289612 -3.82578793913126 0.7264447957277298 -5.571666955947876 -15.935941189527512 -12.557091414928436 24.577223360538483 -13.044938296079636 10.334909409284592 -27.760777473449707 -11.309384107589722 11.78482174873352 10.931117534637451 -5.030410923063755 -0.30412495136260986 7.122984230518341 -6.324255242943764 9.535959139466286 1.579560600221157 -1.399824433028698 54.371697306632996 44.91360604763031 18.3451509475708 -16.61509394645691 -29.21517848968506 70.76292335987091 -7.783896625041962 -18.422724455595016 -18.954652100801468 -3.87312188744545 0.4483473300933838 6.485895216464996 -0.1420501247048378 9.55186128616333 -7.470188140869141 0.7249764539301395 -5.659798979759216 1.9046493619680405 -4.966503605246544 -5.550727620720863 -4.205126389861107 5.7685598731040955 -7.453974187374115 -12.144688367843628 -3.40805534273386 -1.2945862859487534 6.102981045842171 6.887012869119644 12.118080854415894 2.111947238445282 0.010710228234529495 2.5260192900896072 0.7596726715564728 8.002604618668556 10.867292359471321 6.149214953184128 4.229154288768768 -8.218442648649216 6.197191625833511 5.05899790674448 -3.3247995749115944 -9.382458329200745 -61.720327734947205 41.844568848609924 -29.060436487197876 11.232069432735443 -17.22166746854782 -58.28596830368042 8.93150120973587 -3.9015989005565643 10.82968845963478 -1.8571269884705544 -8.589343205094337 -8.85212056338787 -15.890779495239258 15.849230736494064 -0.8508396148681641 -0.2531730383634567 0.9950251132249832 4.9242014810442924 1.624547615647316 0.02496466040611267 4.706604927778244 3.5817625746130943 5.793672725558281 -6.441735997796059 1.4055244624614716 -7.497309297323227 -4.5804643258452415 -3.5985394567251205 2.210337370634079 6.308475807309151 -20.90182587504387 1.463877595961094 -3.0211101472377777 -6.4773523807525635 -5.524682030081749 14.568724036216736 -15.531382262706757 -4.865702837705612 -1.1081868410110474 2.8217801079154015 7.295374497771263 5.938626676797867 -19.968709498643875 -32.13150143623352 -26.46394282579422 -7.123931050300598 64.20859694480896 3.604400083422661 -4.9201469868421555 -5.175076201558113 -15.206214040517807 8.894872963428497 2.5258174538612366 0.7996007055044174 34.98218536376953 -33.010037541389465 29.151293635368347 7.357992008328438 68.95150423049927 -3.808268755674362 16.752471327781677 -11.55460238456726 15.669467747211456
